<svg width="818" height="818" viewBox="0 0 818 818" fill="none" xmlns="http://www.w3.org/2000/svg">
<rect x="0.291992" y="409" width="578" height="578" rx="182" transform="rotate(-45 0.291992 409)" fill="#000080"/>
<path fill-rule="evenodd" clip-rule="evenodd" d="M442.352 195.5C427.341 169.5 389.813 169.5 374.802 195.5L194.283 508.168C179.272 534.168 198.036 566.668 228.058 566.668H483.123L439.597 491.278H409.631V491.102H331.229C313.523 491.102 302.457 471.936 311.31 456.602L388.659 322.631C397.511 307.297 419.643 307.297 428.496 322.631L482.846 416.767H570.101L442.352 195.5ZM613.119 491.278H525.635L569.161 566.668H589.096C619.118 566.668 637.882 534.168 622.871 508.168L613.119 491.278Z" fill="white"/>
</svg>
